<svg xmlns="http://www.w3.org/2000/svg" viewBox="0 0 526.11 322.5"><defs><style>.cls-1{fill:#fff;}</style></defs><g id="Layer_2" data-name="Layer 2"><g id="Layer_5" data-name="Layer 5"><polygon class="cls-1" points="327.97 0.3 196.16 0.3 262.06 57.41 327.97 0.3"/><path class="cls-1" d="M0,.15H6.54A35.67,35.67,0,0,0,0,.15Z"/><path class="cls-1" d="M442.48,178.6s1.22-107.82,9.16-139c0,0-29.23,8.43-53.52,21,67.33-47.06,128-60.45,128-60.45H372.9L384,5.4,262.06,100.88,141.31,5.54l12-5.39H6.54C35.37,2.59,87.2,34.56,115.68,53.5c-5.89-2.84-11.93-5.44-17.66-7.73A192,192,0,0,0,67.46,35l0,.09L67.18,35c7.94,31.18,9.17,139,9.17,139,0,1.11.05,2.26.05,3.43a547.24,547.24,0,0,1-9.59,65.5c-7.49,33.7-16.64,64.21-16.64,64.21L25.51,317.92H150.06l-9.42-10.17,6-37.5c2.72-8.57,5.07-28,6.94-48.75,3-28,4.45-55.09,5.12-74.37a171.59,171.59,0,0,0,.57-25.38c0-1.65,0-2.54,0-2.54a116.35,116.35,0,0,0-5.31-29,88.17,88.17,0,0,0-3.69-10.14c-1.06-2.53-1.77-3.94-1.77-3.94l57,53C231.59,149.26,233,179,233,179l-3.12,114-18.71,24.95H313.8l-20.41-26.65-2.27-110.55c1.13-26.08,26.64-50.46,26.64-50.46l51.78-47.81c-2.46,4.91-13.73,30.16-9.18,72,0,0,4.82,101.48,12.19,121.6l5.67,36.29-9.46,10.2H493.31l-24.66-10.77S441,219.41,442.48,178.6Z"/></g></g></svg>