<svg width="59" height="59" viewBox="0 0 59 59" fill="none" xmlns="http://www.w3.org/2000/svg">
<g id="Arrow_04" clip-path="url(#clip0_52_242)">
<g id="Group">
<path id="Vector" fill-rule="evenodd" clip-rule="evenodd" d="M1.83377 2.62375C5.84155 30.056 30.4555 43.3806 56.1512 46.4103C56.5924 46.4632 56.9097 46.8638 56.8568 47.3051C56.804 47.7463 56.4034 48.0635 55.9622 48.0106C29.5466 44.8975 4.35926 31.0564 0.239643 2.85554C0.174576 2.41633 0.479603 2.00762 0.920845 1.94255C1.36005 1.87749 1.76871 2.18251 1.83377 2.62375Z" fill="#2E2E2E"/>
<path id="Vector_2" fill-rule="evenodd" clip-rule="evenodd" d="M55.5737 47.154C54.431 46.3183 52.9852 45.2853 52.8246 45.1633C48.4711 41.8571 44.8639 38.0527 41.6878 33.5894C41.4296 33.2275 41.515 32.7232 41.8769 32.4649C42.2389 32.2067 42.7431 32.2921 43.0014 32.6541C46.0799 36.9831 49.5772 40.6737 53.8006 43.8803C54.0466 44.0674 57.298 46.3874 57.9202 46.906C58.1764 47.1174 58.2557 47.3167 58.2699 47.3655C58.3553 47.6217 58.3045 47.823 58.2354 47.9694C58.1561 48.1341 57.9589 48.3741 57.5766 48.4961C57.176 48.6221 56.2854 48.6791 56.0617 48.7116C52.6883 49.2118 48.8798 49.4762 45.4129 50.4359C42.1066 51.3509 39.1075 52.9003 37.1839 56.0053C36.9501 56.3835 36.4519 56.4994 36.0737 56.2656C35.6955 56.0317 35.5795 55.5336 35.8134 55.1554C37.9647 51.6844 41.2873 49.9052 44.9819 48.8824C48.4285 47.9287 52.2024 47.64 55.5737 47.154Z" fill="#2E2E2E"/>
</g>
</g>
<defs>
<clipPath id="clip0_52_242">
<rect width="58.3423" height="58.3423" fill="white" transform="matrix(-1 0 0 1 58.3423 0)"/>
</clipPath>
</defs>
</svg>
