<?xml version="1.0" standalone="no"?>
<!DOCTYPE svg PUBLIC "-//W3C//DTD SVG 20010904//EN"
 "http://www.w3.org/TR/2001/REC-SVG-20010904/DTD/svg10.dtd">
<svg version="1.0" xmlns="http://www.w3.org/2000/svg"
 width="48.000000pt" height="29.000000pt" viewBox="0 0 48.000000 29.000000"
 preserveAspectRatio="xMidYMid meet">

<g transform="translate(0.000000,29.000000) scale(0.100000,-0.100000)"
fill="#000000" stroke="none">
<path d="M46 277 c17 -10 20 -23 22 -92 2 -45 -3 -103 -11 -132 l-14 -53 42 0
c41 0 43 1 49 37 3 21 6 68 6 106 0 37 4 67 9 67 5 0 21 -14 36 -32 25 -29 27
-38 23 -105 l-3 -73 38 0 c32 0 37 3 33 18 -3 10 -7 44 -9 75 -2 52 1 59 31
89 l32 33 0 -55 c0 -30 3 -79 6 -108 l7 -52 51 0 c28 0 46 4 40 8 -19 12 -37
122 -30 184 4 42 2 58 -7 59 -6 0 6 9 28 20 l40 18 -56 1 c-51 0 -60 -4 -113
-45 l-58 -45 -57 45 c-51 40 -63 45 -107 45 -43 -1 -47 -2 -28 -13z"/>
<path d="M210 265 c24 -25 43 -23 70 9 11 14 6 16 -41 16 l-52 0 23 -25z"/>
</g>
</svg>
